<svg width="572" height="21" viewBox="0 0 572 21" fill="none" xmlns="http://www.w3.org/2000/svg">
<path d="M281.337 0.697525C277.746 1.97208 275.793 3.5501 274.343 6.28128C273.65 7.55583 273.02 8.76969 272.957 8.83038C272.894 8.95177 271.634 7.7986 270.059 6.28128C267.917 4.09633 266.846 3.4894 265.27 3.4894C262.624 3.4894 259.852 4.64257 256.197 7.37375L253.11 9.61939L251.661 8.10207C249.581 5.91712 247.376 6.0992 245.423 8.46622L243.848 10.4691L239.878 6.70613L235.908 2.88247L232.254 6.40266C229.104 9.43731 228.537 9.74078 227.528 9.07315C226.961 8.6483 225.197 7.73791 223.622 7.00959C220.85 5.73504 220.408 5.73504 196.528 6.0992C183.171 6.34197 135.536 7.37375 90.6746 8.34484C45.8127 9.31593 6.99968 10.1656 4.41634 10.1656C1.83301 10.1656 -0.120247 10.287 0.005769 10.4084C0.257802 10.7119 27.3513 11.3795 97.6055 12.8968C120.666 13.3824 152.108 14.05 167.545 14.4141C222.551 15.628 223.937 15.5673 226.709 12.4113C228.095 10.7726 229.041 11.1974 232.506 14.8997L235.782 18.4199L239.815 14.4748C243.595 10.7726 243.911 10.5298 244.541 11.683C246.242 14.7783 249.833 15.3852 251.85 12.8968L253.11 11.3795L255.504 13.261C258.969 15.9315 262.309 17.4488 264.64 17.4488C267.098 17.4488 270.374 15.5673 271.508 13.5037C272.642 11.5009 273.02 11.5616 273.902 14.05C277.368 23.2146 294.254 23.336 297.972 14.2927C298.476 13.2003 298.854 12.2292 298.917 12.1078C298.98 12.0471 300.303 13.2003 301.878 14.7176C304.209 16.9632 305.155 17.4488 307.045 17.4488C309.691 17.4488 312.905 15.9921 316.496 13.261L318.89 11.3795L320.15 12.8968C322.167 15.3852 325.758 14.7783 327.459 11.683C328.089 10.5298 328.405 10.7726 332.185 14.4748L336.218 18.4199L339.494 14.8997C342.959 11.1974 343.905 10.7726 345.291 12.4113C348 15.5066 350.205 15.628 404.77 14.4141C475.088 12.8968 490.588 12.5327 529.842 11.6223C552.84 11.1367 571.868 10.5905 571.994 10.4084C572.12 10.287 570.167 10.1656 567.584 10.1656C565 10.1656 526.187 9.31593 481.325 8.34484C436.464 7.37375 388.829 6.34197 375.472 6.0992C351.592 5.73504 351.15 5.73504 348.378 7.00959C346.803 7.73791 345.039 8.6483 344.409 9.07315C343.4 9.74078 342.833 9.43731 339.746 6.34197L336.218 2.82178L332.248 6.58474C328.72 9.92285 326.955 10.7119 326.955 8.83038C326.955 7.85929 324.939 6.58474 323.301 6.52405C322.482 6.52405 321.159 7.25237 320.339 8.10207L318.89 9.61939L315.803 7.37375C309.25 2.51832 305.974 2.27554 301.878 6.22058C300.366 7.73791 298.98 8.95177 298.917 8.95177C298.791 8.95177 298.602 8.28415 298.35 7.55583C296.963 2.09346 287.764 -1.60881 281.337 0.697525ZM289.78 7.73791C292.679 10.5298 290.474 14.7176 286 14.7176C283.039 14.7176 280.959 13.0789 280.959 10.6512C280.959 8.16276 282.976 6.52405 286 6.52405C287.701 6.52405 288.961 6.9489 289.78 7.73791ZM266.53 8.89108C267.728 9.86216 267.917 10.287 267.35 11.1367C266.026 13.261 264.766 13.5644 262.372 12.3506C261.175 11.683 260.167 10.9546 260.167 10.6512C260.167 10.1656 263.884 7.73791 264.64 7.73791C264.892 7.73791 265.711 8.28415 266.53 8.89108ZM309.817 8.95177C310.888 9.61939 311.833 10.4084 311.833 10.6512C311.833 10.9546 310.825 11.683 309.628 12.3506C307.234 13.5644 305.974 13.261 304.65 11.1367C304.083 10.287 304.272 9.86216 305.47 8.89108C307.297 7.49514 307.297 7.49514 309.817 8.95177Z" fill="#FB9F14"/>
</svg>
